<svg xmlns="http://www.w3.org/2000/svg" viewBox="0 0 231 231"><path d="M33.83,33.83a115.5,115.5,0,1,1,0,163.34,115.49,115.49,0,0,1,0-163.34Z" style="fill:#ffe926;"/><path d="m115.5 51.75a63.75 63.75 0 0 0-10.5 126.63v14.09a115.5 115.5 0 0 0-53.729 19.027 115.5 115.5 0 0 0 128.46 0 115.5 115.5 0 0 0-53.729-19.029v-14.084a63.75 63.75 0 0 0 53.25-62.881 63.75 63.75 0 0 0-63.65-63.75 63.75 63.75 0 0 0-0.09961 0z" style="fill:#b27e5b;"/><path d="m116 203.13c-0.12 0-0.25 0.12-0.49 0.12s-0.25-0.12-0.49-0.12zm-27.29-8c0.87-0.25 1.72-0.47 2.56-0.69a32.37 32.37 0 0 0 0.3 8.57 21.5 21.5 0 0 0 7 6.88c6.41-6 16.8-6.64 16.8-6.64s10.5 0.58 17 6.69a21.61 21.61 0 0 0 6.93-6.66 32.34 32.34 0 0 0 0.35-8.84l2.13 0.56a114.79 114.79 0 0 1 38 16.5 115.53 115.53 0 0 1-128.46 0 114.64 114.64 0 0 1 37.38-16.37z" style="fill:#e6e9ee;"/><path d="m126.15 206-3.92 7.83h-13.46l-3.92-7.83a36.59 36.59 0 0 1 10.65-2.7 35.66 35.66 0 0 1 10.65 2.7z" style="fill:#f1543f;"/><path d="m124.54 230.65-2.18-16.74h-13.47l-2.19 16.76c2.9 0.22 5.84 0.33 8.8 0.33s6.06-0.12 9-0.35z" style="fill:#ff7058;"/><path d="m134.84 186s0.86 9.8-19.34 17.26c0 0 15.79 0.86 20.57 11.76 0.12 0.49 9.3-23.26-1.23-29z" style="fill:#fff;"/><path d="m96.16 186c-10.41 5.76-1.35 29.39-1.1 29 4.65-10.78 20.56-11.76 20.56-11.76-20.32-7.45-19.46-17.24-19.46-17.24z" style="fill:#fff;"/><path d="m137.38 11.148c-12.23 1.9593-18.511 14.606-43.436 9.4915-11.285-3.2054-16.406-3.573-20.389 0.58594-4.1548 4.3384-7.033 12.435-9.8184 21.706-2.1354 7.4136-3.7187 14.381-4.7461 21.646h112.7c-3.4878-24.293-10.822-43.281-25.182-51.061-3.5314-1.623-6.5274-2.2959-9.1289-2.3613z" style="fill:#333;"/><path d="m114.37 43.383c-19.445 0.088-38.524 2.0724-52.379 5.6992-1.2766 4.5795-2.4317 10.169-3.2285 16.807h113.11c-0.83731-6.0107-1.9164-11.674-3.3184-16.924-15.229-3.8842-34.873-5.6693-54.18-5.582z" style="fill:#afafaf;"/><path d="m115.5 55.773c-58.39 0-105.73 15.476-105.73 34.57h0.0312c0 11.295 16.496 21.319 42.126 27.627-0.10331-7.7704 2.788-21.904 5.2734-31.031 6.0935-1.7168 6.9294-1.8971 13.167-2.9919 14.874-2.8256 29.99-4.2037 45.133-4.1153 15.143-0.0884 30.259 1.2897 45.133 4.1153 6.2372 1.0947 7.2065 1.2751 13.3 2.9919 2.4854 9.1267 5.3768 23.26 5.2734 31.031 25.63-6.3082 41.993-16.332 41.993-27.627h0.0312c0-19.093-47.34-34.57-105.73-34.57z" style="fill:#222;"/><path d="m72.088 83.533c-6.9765 1.1147-13.357 2.856-18.439 4.3477-1.1861 7.415-2.0038 18.858-1.8926 26.293 4.3278-0.62795 10.155-1.3644 13.295-1.6465-0.40554 0.30198 2.7344-17.827 7.0371-28.994zm86.824 0c4.3028 11.167 7.4426 29.296 7.0371 28.994 3.1396 0.28213 8.9671 1.0185 13.295 1.6465 0.11119-7.4351-0.70652-18.878-1.8926-26.293-5.0822-1.4916-11.463-3.2329-18.439-4.3477z" style="fill:#6d3a1d;"/><path d="m161.73 86.016h-92.51c-3.37 0-6.0001 2.3998-6.0001 5.2999v28.45c0 3.0002 2.74 5.3001 6.0001 5.3001h32.36c7.0901 0 7.44-19.43 13.82-19.43s6.8801 19.44 13.83 19.44h32.36c3.37 0 5.9999-2.4 5.9999-5.3001v-28.46c0.14043-2.9001-2.6-5.2999-5.9-5.2999z" style="fill:#581b1b;"/><path d="m161.73 86.016h-92.51c-3.37 0-6.0001 2.3998-6.0001 5.2999v28.45l104.55-28.45c0-2.9001-2.74-5.2999-5.9999-5.2999z" style="fill:#FF8B8B;"/><path d="m161.73 86.016h-92.51c-3.37 0-6.0001 2.3998-6.0001 5.2999v28.45c0 3.0002 2.74 5.3001 6.0001 5.3001h32.36c7.0901 0 7.44-19.43 13.82-19.43s6.8801 19.44 13.83 19.44h32.36c3.37 0 5.9999-2.4 5.9999-5.3001v-28.46c0.14043-2.9001-2.6-5.2999-5.9-5.2999z" style="fill:none;stroke-linecap:round;stroke-linejoin:round;stroke-width:4.0026px;stroke:#000;"/><path d="m127.84 146.73c-2.24 8.93-6.92 15.08-12.34 15.08s-10.1-6.15-12.34-15.08z" style="fill:#fff;stroke-linecap:round;stroke-linejoin:round;stroke-width:2.9999px;stroke:#000;"/></svg>